<svg xmlns="http://www.w3.org/2000/svg" viewBox="0 0 800 600">
  <defs>
    <linearGradient id="parede" x1="0" y1="0" x2="1" y2="1">
      <stop offset="0" stop-color="#0f172a"/>
      <stop offset="1" stop-color="#1e3a8a"/>
    </linearGradient>
    <linearGradient id="painel" x1="0" y1="0" x2="1" y2="1">
      <stop offset="0" stop-color="#475569"/>
      <stop offset="1" stop-color="#334155"/>
    </linearGradient>
  </defs>

  <rect width="800" height="600" fill="url(#parede)"/>

  <rect x="225" y="70" width="350" height="150" rx="10" fill="none" stroke="#2563eb" stroke-opacity="0.25" stroke-width="2"/>
  <rect x="250" y="95" width="300" height="100" rx="8" fill="#0f172a" fill-opacity="0.55"/>
  <text x="400" y="140" text-anchor="middle" font-family="Inter, Arial, sans-serif" font-size="20" font-weight="bold" fill="#f59e0b">C&amp;M AUTOMAÇÃO</text>
  <text x="400" y="168" text-anchor="middle" font-family="Inter, Arial, sans-serif" font-size="12" fill="#94a3b8">SOLUÇÕES ELÉTRICAS E AUTOMAÇÃO</text>

  <rect x="250" y="230" width="300" height="300" rx="12" fill="url(#painel)" stroke="#1e293b" stroke-width="3"/>
  <rect x="268" y="250" width="264" height="258" rx="8" fill="#1e293b"/>

  <g>
    <rect x="282" y="266" width="30" height="46" rx="4" fill="#0f172a"/>
    <rect x="282" y="266" width="30" height="16" rx="3" fill="#f59e0b"/>
    <rect x="322" y="266" width="46" height="46" rx="4" fill="#0f172a"/>
    <rect x="322" y="266" width="46" height="16" rx="3" fill="#22c55e"/>
    <rect x="378" y="266" width="30" height="46" rx="4" fill="#0f172a"/>
    <rect x="378" y="266" width="30" height="16" rx="3" fill="#f59e0b"/>
    <rect x="418" y="266" width="46" height="46" rx="4" fill="#0f172a"/>
    <rect x="418" y="266" width="46" height="16" rx="3" fill="#22c55e"/>
    <rect x="474" y="266" width="42" height="46" rx="4" fill="#0f172a"/>
    <rect x="474" y="266" width="42" height="16" rx="3" fill="#f59e0b"/>
  </g>

  <g>
    <rect x="282" y="326" width="30" height="46" rx="4" fill="#0f172a"/>
    <rect x="282" y="326" width="30" height="16" rx="3" fill="#22c55e"/>
    <rect x="322" y="326" width="46" height="46" rx="4" fill="#0f172a"/>
    <rect x="322" y="326" width="46" height="16" rx="3" fill="#f59e0b"/>
    <rect x="378" y="326" width="30" height="46" rx="4" fill="#0f172a"/>
    <rect x="378" y="326" width="30" height="16" rx="3" fill="#22c55e"/>
    <rect x="418" y="326" width="46" height="46" rx="4" fill="#0f172a"/>
    <rect x="418" y="326" width="46" height="16" rx="3" fill="#f59e0b"/>
    <rect x="474" y="326" width="42" height="46" rx="4" fill="#0f172a"/>
    <rect x="474" y="326" width="42" height="16" rx="3" fill="#f59e0b"/>
  </g>

  <rect x="282" y="390" width="234" height="34" rx="6" fill="#0f172a"/>
  <rect x="292" y="398" width="120" height="7" rx="3" fill="#475569"/>
  <rect x="292" y="410" width="90" height="7" rx="3" fill="#475569"/>
  <rect x="420" y="398" width="56" height="18" rx="4" fill="#22c55e"/>

  <rect x="282" y="436" width="234" height="28" rx="6" fill="#0f172a"/>
  <rect x="440" y="444" width="66" height="12" rx="3" fill="#64748b"/>

  <path d="M300 512 C300 496 320 496 320 512" fill="none" stroke="#64748b" stroke-width="3" stroke-linecap="round"/>
  <rect x="286" y="510" width="34" height="10" rx="3" fill="#64748b"/>
  <circle cx="400" cy="512" r="6" fill="#22c55e"/>

  <text x="400" y="572" text-anchor="middle" font-family="Inter, Arial, sans-serif" font-size="14" fill="#94a3b8">Instalação elétrica profissional — imagem ilustrativa</text>
</svg>